<?xml version="1.0" encoding="utf-8"?>
<!-- Generator: Adobe Illustrator 19.2.1, SVG Export Plug-In . SVG Version: 6.00 Build 0)  -->
<svg version="1.1" id="Layer_1" xmlns="http://www.w3.org/2000/svg" xmlns:xlink="http://www.w3.org/1999/xlink" x="0px" y="0px"
	 viewBox="0 0 489.4 282.7" style="enable-background:new 0 0 489.4 282.7;" xml:space="preserve">
<style type="text/css">
	.st0{fill:none;}
	.st1{font-family:'MyriadPro-Regular';}
	.st2{font-size:47px;}
	.st3{fill:#E581B4;}
	.st4{font-size:72px;}
	.st5{fill:#E481B4;}
	.st6{font-size:66px;}
</style>
<rect x="0" y="23.7" class="st0" width="131.2" height="40.6"/>
<text transform="matrix(1 0 0 1 1.659393e-04 57.0986)" class="st1 st2">How a </text>
<rect x="142.7" y="9.1" class="st0" width="103.6" height="55.2"/>
<text transform="matrix(1 0 0 1 142.7088 60.2645)" class="st3 st1 st4">PIG </text>
<rect x="24" y="90.4" class="st0" width="140.6" height="37.5"/>
<text transform="matrix(1 0 0 1 24.0212 123.7646)" class="st1 st2">named</text>
<rect x="178.2" y="84.4" class="st0" width="251" height="49.5"/>
<text transform="matrix(1 0 0 1 178.188 131.265)" class="st5 st1 st6">PIGASUS</text>
<rect x="49.8" y="154.5" class="st0" width="412.5" height="50"/>
<text transform="matrix(1 0 0 1 49.8026 187.8275)" class="st1 st2">gave us the modern</text>
<rect x="210.2" y="213.6" class="st0" width="279.2" height="54.2"/>
<text transform="matrix(1 0 0 1 210.2189 264.6919)" class="st5 st1 st4">PRIMARY</text>
</svg>
